<?xml version="1.0" encoding="UTF-8"?>
<svg xmlns="http://www.w3.org/2000/svg" width="420" height="360" viewBox="0 0 420 360" role="img" aria-labelledby="title desc">
  <title id="title">Llama Rig stacked logo</title>
  <desc id="desc">Llama Rig logo with icon above and wordmark below.</desc>

  <defs>
    <clipPath id="leftHalf">
      <rect x="0" y="0" width="92" height="210" />
    </clipPath>
  </defs>

  <g transform="translate(110 18)">

  <g clip-path="url(#leftHalf)" fill="#0D9488">
    <circle cx="96" cy="105" r="43" fill="none" stroke="#0D9488" stroke-width="12"/>
    <rect x="144" y="97" width="25" height="16" rx="1" transform="rotate(110 96 105)"/>
    <rect x="144" y="97" width="25" height="16" rx="1" transform="rotate(145 96 105)"/>
    <rect x="144" y="97" width="25" height="16" rx="1" transform="rotate(180 96 105)"/>
    <rect x="144" y="97" width="25" height="16" rx="1" transform="rotate(215 96 105)"/>
    <rect x="144" y="97" width="25" height="16" rx="1" transform="rotate(250 96 105)"/>
  </g>
  <rect x="92" y="18" width="8" height="174" rx="1.5" fill="#26272B"/>
  <path d="M120 28V74H164V113H138V129L163 155V192"
        fill="none" stroke="#26272B" stroke-width="8"
        stroke-linecap="round" stroke-linejoin="round"/>

  </g>

  <path d="m 124.76563,282.5332 h -4.94141 V 316 h 4.94141 z m 11.23984,0 h -4.94141 V 316 h 4.94141 z m 13.32871,34.02832 c 4.06543,0 6.44629,-2.04394 7.41211,-3.99804 h 0.24707 V 316 h 4.78418 v -16.66602 c 0,-7.25488 -5.77246,-8.75976 -9.81543,-8.75976 -4.46973,0 -8.69238,1.75195 -10.39942,6.24414 l 4.64942,1.21289 c 0.69629,-1.70703 2.53808,-3.43652 5.81738,-3.43652 3.14453,0 4.80664,1.61718 4.80664,4.40234 v 0.13477 c 0,1.77441 -1.90918,1.75195 -6.33398,2.26855 -4.73926,0.53906 -9.65821,1.79688 -9.65821,7.50195 0,4.94141 3.70606,7.65918 8.49024,7.65918 z m 1.10058,-3.97558 c -2.76269,0 -4.73925,-1.23535 -4.73925,-3.61621 0,-2.58301 2.29101,-3.52637 5.07617,-3.90821 1.52734,-0.20215 5.3457,-0.60644 6.08691,-1.32519 v 3.21191 c 0,2.94238 -2.40332,5.6377 -6.42383,5.6377 z M 168.07598,316 h 4.9414 v -15.61035 c 0,-3.66113 2.38086,-5.59278 5.14356,-5.59278 2.65039,0 4.58203,1.77442 4.58203,4.44727 V 316 h 4.87402 v -16.08203 c 0,-2.98731 1.88672,-5.1211 5.00879,-5.1211 2.56055,0 4.7168,1.41504 4.7168,4.76172 V 316 h 4.94141 v -16.93555 c 0,-5.70508 -3.50391,-8.60254 -7.95118,-8.60254 -3.57129,0 -6.6709,1.88672 -7.95117,5.27832 -0.98828,-3.32421 -3.14453,-5.27832 -6.42383,-5.27832 -2.9873,0 -5.79492,1.63965 -7.07519,5.1211 l -0.11231,-4.69434 h -4.69433 z m 47.53671,0.56152 c 4.06543,0 6.44629,-2.04394 7.41211,-3.99804 h 0.24707 V 316 h 4.78418 v -16.66602 c 0,-7.25488 -5.77246,-8.75976 -9.81543,-8.75976 -4.46972,0 -8.69238,1.75195 -10.39941,6.24414 l 4.64941,1.21289 c 0.69629,-1.70703 2.53809,-3.43652 5.81739,-3.43652 3.14453,0 4.80664,1.61718 4.80664,4.40234 v 0.13477 c 0,1.77441 -1.90918,1.75195 -6.33399,2.26855 -4.73926,0.53906 -9.6582,1.79688 -9.6582,7.50195 0,4.94141 3.70605,7.65918 8.49023,7.65918 z m 1.10059,-3.97558 c -2.7627,0 -4.73926,-1.23535 -4.73926,-3.61621 0,-2.58301 2.29102,-3.52637 5.07617,-3.90821 1.52735,-0.20215 5.34571,-0.60644 6.08692,-1.32519 v 3.21191 c 0,2.94238 -2.40332,5.6377 -6.42383,5.6377 z"
     style="fill:#26272b" aria-label="llama"/>


  <path d="m 248.32422,316 h 4.9414 v -15.25098 c 0,-3.30175 2.51563,-5.63769 5.97461,-5.63769 1.03321,0 2.22364,0.17969 2.58301,0.26953 v -4.7168 c -0.5166,-0.0674 -1.45996,-0.13476 -2.08887,-0.13476 -2.94238,0 -5.43554,1.66211 -6.35644,4.40234 h -0.26953 v -4.04297 h -4.78418 z m 17.79844,0 h 4.9414 v -25.11133 h -4.9414 z m 2.49316,-28.95215 c 1.70703,0 3.12207,-1.30273 3.12207,-2.91992 0,-1.63965 -1.41504,-2.94238 -3.12207,-2.94238 -1.70703,0 -3.12207,1.30273 -3.12207,2.94238 0,1.61719 1.41504,2.91992 3.12207,2.91992 z m 19.2584,38.87988 c 6.42383,0 11.34277,-2.96484 11.34277,-9.56836 v -25.4707 h -4.8291 v 4.08789 h -0.35938 c -0.87597,-1.57226 -2.65039,-4.40234 -7.27734,-4.40234 -6.04199,0 -10.55664,4.76172 -10.55664,12.78027 0,8.01856 4.58203,12.26367 10.48926,12.26367 4.58203,0 6.31152,-2.53808 7.1875,-4.17773 h 0.42676 v 4.89648 c 0,3.86329 -2.62793,5.61524 -6.44629,5.61524 -4.04297,0 -5.61524,-1.99903 -6.51367,-3.43653 l -4.13282,1.95411 c 1.41504,3.03222 4.85157,5.458 10.66895,5.458 z m -0.0449,-14.41992 c -4.3125,0 -6.58106,-3.32422 -6.58106,-8.2207 0,-4.78418 2.20117,-8.5127 6.58106,-8.5127 4.24511,0 6.49121,3.48145 6.49121,8.5127 0,5.14355 -2.31348,8.2207 -6.49121,8.2207 z"
     style="fill:#0d9488" aria-label="rig"/>

</svg>
