<?xml version="1.0" encoding="UTF-8"?>
<svg xmlns="http://www.w3.org/2000/svg" width="362" height="106" viewBox="139 58 362 106" role="img" aria-labelledby="title desc">
  <title id="title">Llama Rig horizontal logo</title>
  <desc id="desc">Llama Rig logo with icon left and wordmark right.</desc>

  <defs>
    <clipPath id="leftHalf">
      <rect x="0" y="0" width="92" height="210" />
    </clipPath>
  </defs>

  <g transform="translate(22 5)">
  <g transform="translate(114 52.5) scale(.5)">

  <g clip-path="url(#leftHalf)" fill="var(--primary, #0D9488)">
    <circle cx="96" cy="105" r="43" fill="none" stroke="var(--primary, #0D9488)" stroke-width="12"/>
    <rect x="144" y="97" width="25" height="16" rx="1" transform="rotate(110 96 105)"/>
    <rect x="144" y="97" width="25" height="16" rx="1" transform="rotate(145 96 105)"/>
    <rect x="144" y="97" width="25" height="16" rx="1" transform="rotate(180 96 105)"/>
    <rect x="144" y="97" width="25" height="16" rx="1" transform="rotate(215 96 105)"/>
    <rect x="144" y="97" width="25" height="16" rx="1" transform="rotate(250 96 105)"/>
  </g>
  <rect x="92" y="18" width="8" height="174" rx="1.5" fill="#26272B"/>
  <path d="M120 28V74H164V113H138V129L163 155V192"
        fill="none" stroke="#26272B" stroke-width="8"
        stroke-linecap="round" stroke-linejoin="round"/>

  </g>
  </g>

  <path d="m 257.14062,86.892578 h -6.66015 V 132 h 6.66015 z m 15.1211,0 h -6.66016 V 132 h 6.66016 z m 17.93652,45.864262 c 5.47949,0 8.68848,-2.75489 9.99024,-5.38868 h 0.333 V 132 h 6.44825 v -22.46289 c 0,-9.778321 -7.78028,-11.806641 -13.2295,-11.806641 -6.02441,0 -11.71582,2.361331 -14.0166,8.416011 l 6.2666,1.63477 c 0.93848,-2.30078 3.4209,-4.63184 7.84082,-4.63184 4.23829,0 6.47852,2.17969 6.47852,5.9336 v 0.18164 c 0,2.3916 -2.57324,2.36133 -8.53711,3.05762 -6.38769,0.72656 -13.01758,2.42187 -13.01758,10.11132 0,6.66016 4.99512,10.32325 11.44336,10.32325 z m 1.4834,-5.3584 c -3.72363,0 -6.38769,-1.66504 -6.38769,-4.87403 0,-3.48144 3.08789,-4.75293 6.84179,-5.26757 2.0586,-0.27246 7.20508,-0.81739 8.2041,-1.78614 v 4.3291 c 0,3.96583 -3.23925,7.59864 -8.6582,7.59864 z M 315.43066,132 h 6.66016 v -21.04004 c 0,-4.93457 3.20898,-7.53808 6.93262,-7.53808 3.57226,0 6.17578,2.3916 6.17578,5.99414 V 132 h 6.56933 v -21.67578 c 0,-4.02637 2.54297,-6.90234 6.75098,-6.90234 3.45117,0 6.35742,1.90722 6.35742,6.41796 V 132 h 6.66016 v -22.82617 c 0,-7.68945 -4.72266,-11.594728 -10.7168,-11.594728 -4.81347,0 -8.99121,2.542968 -10.71679,7.114258 -1.33204,-4.48047 -4.23829,-7.114258 -8.65821,-7.114258 -4.02636,0 -7.81054,2.20996 -9.53613,6.902348 l -0.15137,-6.327153 h -6.32715 z m 64.04297,0.75684 c 5.47949,0 8.68848,-2.75489 9.99024,-5.38868 h 0.333 V 132 h 6.44825 v -22.46289 c 0,-9.778321 -7.78028,-11.806641 -13.2295,-11.806641 -6.02441,0 -11.71582,2.361331 -14.0166,8.416011 l 6.2666,1.63477 c 0.93848,-2.30078 3.4209,-4.63184 7.84083,-4.63184 4.23828,0 6.47851,2.17969 6.47851,5.9336 v 0.18164 c 0,2.3916 -2.57324,2.36133 -8.53711,3.05762 -6.38769,0.72656 -13.01758,2.42187 -13.01758,10.11132 0,6.66016 4.99512,10.32325 11.44336,10.32325 z m 1.4834,-5.3584 c -3.72363,0 -6.38769,-1.66504 -6.38769,-4.87403 0,-3.48144 3.08789,-4.75293 6.84179,-5.26757 2.0586,-0.27246 7.20508,-0.81739 8.2041,-1.78614 v 4.3291 c 0,3.96583 -3.23925,7.59864 -8.6582,7.59864 z"
     style="fill:#26272b" aria-label="llama"/>


  <path d="m 423.48047,132 h 6.66015 v -20.55566 c 0,-4.4502 3.39063,-7.59864 8.05274,-7.59864 1.39258,0 2.99707,0.24219 3.48144,0.36328 v -6.357418 c -0.69628,-0.09082 -1.96777,-0.18164 -2.81543,-0.18164 -3.96582,0 -7.32617,2.240234 -8.56738,5.933598 h -0.36328 v -5.449223 h -6.44824 z m 23.96094,0 h 6.66015 V 98.154297 h -6.66015 z m 3.36035,-39.022461 c 2.30078,0 4.20801,-1.755859 4.20801,-3.935547 0,-2.209961 -1.90723,-3.96582 -4.20801,-3.96582 -2.30078,0 -4.20801,1.755859 -4.20801,3.96582 0,2.179688 1.90723,3.935547 4.20801,3.935547 z m 25.92871,52.403321 c 8.6582,0 15.28808,-3.99609 15.28808,-12.89649 V 98.154297 h -6.50878 v 5.509763 h -0.48438 c -1.18066,-2.11914 -3.57227,-5.933591 -9.80859,-5.933591 -8.14356,0 -14.22852,6.417971 -14.22852,17.225581 0,10.80762 6.17578,16.5293 14.1377,16.5293 6.17578,0 8.50683,-3.4209 9.6875,-5.63086 h 0.57519 v 6.59961 c 0,5.20703 -3.54199,7.56836 -8.68847,7.56836 -5.44922,0 -7.56836,-2.69434 -8.7793,-4.63184 l -5.57031,2.63379 c 1.90722,4.08692 6.53906,7.35645 14.37988,7.35645 z m -0.0606,-19.43555 c -5.8125,0 -8.87012,-4.48047 -8.87012,-11.08008 0,-6.44824 2.9668,-11.47363 8.87012,-11.47363 5.72168,0 8.74903,4.69238 8.74903,11.47363 0,6.93262 -3.11817,11.08008 -8.74903,11.08008 z"
     style="fill:var(--primary, #0D9488)" aria-label="rig"/>

</svg>
